<svg xmlns="http://www.w3.org/2000/svg" viewBox="0 0 384 512"><!--!Font Awesome Free 6.7.2 by @fontawesome - https://fontawesome.com License - https://fontawesome.com/license/free Copyright 2025 Fonticons, Inc.--><path d="M97.3 507c-129.9-129.9-129.7-340.3 0-469.9 5.7-5.7 14.5-6.6 21.3-2.4l64.8 40.5a17.2 17.2 0 0 1 6.8 21l-32.4 81a17.2 17.2 0 0 1 -17.7 10.7l-55.8-5.6c-21.1 58.3-20.6 122.5 0 179.5l55.8-5.6a17.2 17.2 0 0 1 17.7 10.7l32.4 81a17.2 17.2 0 0 1 -6.8 21l-64.8 40.5a17.2 17.2 0 0 1 -21.3-2.4zM247.1 95.5c11.8 20 11.8 45 0 65.1-4 6.7-13.1 8-18.7 2.6l-6-5.7c-3.9-3.7-4.8-9.6-2.3-14.4a32.1 32.1 0 0 0 0-29.9c-2.5-4.8-1.7-10.7 2.3-14.4l6-5.7c5.6-5.4 14.8-4.1 18.7 2.6zm91.8-91.2c60.1 71.6 60.1 175.9 0 247.4-4.5 5.3-12.5 5.7-17.6 .9l-5.8-5.6c-4.6-4.4-5-11.5-.9-16.4 49.7-59.5 49.6-145.9 0-205.4-4-4.9-3.6-12 .9-16.4l5.8-5.6c5-4.8 13.1-4.4 17.6 .9zm-46 44.9c36.1 46.3 36.1 111.1 0 157.5-4.4 5.6-12.7 6.3-17.9 1.3l-5.8-5.6c-4.4-4.2-5-11.1-1.3-15.9 26.5-34.6 26.5-82.6 0-117.1-3.7-4.8-3.1-11.7 1.3-15.9l5.8-5.6c5.2-4.9 13.5-4.3 17.9 1.3z"/></svg>